<?xml version="1.0" standalone="no"?>
<!DOCTYPE svg PUBLIC "-//W3C//DTD SVG 20010904//EN"
 "http://www.w3.org/TR/2001/REC-SVG-20010904/DTD/svg10.dtd">
<svg version="1.0" xmlns="http://www.w3.org/2000/svg"
 width="578.000000pt" height="578.000000pt" viewBox="0 0 578.000000 578.000000"
 preserveAspectRatio="xMidYMid meet">
<metadata>
Created by potrace 1.11, written by Peter Selinger 2001-2013
</metadata>
<g transform="translate(0.000000,578.000000) scale(0.100000,-0.100000)"
fill="#000000" stroke="none">
<path d="M2679 5676 c-2 -2 -38 -7 -79 -10 -71 -6 -89 -8 -170 -22 -19 -3 -48
-8 -65 -11 -103 -16 -309 -71 -425 -113 -412 -151 -719 -348 -1030 -660 -317
-317 -531 -662 -670 -1080 -67 -203 -104 -379 -130 -630 -8 -79 -5 -470 4
-530 3 -19 8 -55 11 -80 5 -40 20 -127 31 -185 45 -229 127 -464 245 -698 152
-302 392 -614 628 -816 30 -25 62 -53 70 -61 58 -55 264 -199 391 -271 254
-146 593 -274 830 -314 19 -3 42 -8 50 -10 13 -4 48 -9 130 -21 97 -13 211
-19 375 -19 165 0 348 10 365 20 3 1 29 6 59 9 160 19 406 87 610 168 89 35
321 150 361 178 15 11 33 20 39 20 6 0 11 5 11 10 0 6 5 10 11 10 9 0 154 94
169 110 3 3 32 25 65 50 87 64 125 98 275 250 220 221 365 421 500 689 101
201 168 381 220 591 27 112 34 143 45 225 4 22 8 47 10 55 27 100 26 593 0
755 -10 62 -15 91 -20 130 -4 22 -11 58 -17 80 -5 22 -12 49 -14 60 -12 61
-72 255 -111 355 -48 124 -133 299 -206 422 -45 76 -174 263 -200 290 -7 7
-19 22 -27 34 -40 56 -198 223 -319 334 -35 32 -159 129 -226 177 -358 256
-820 438 -1240 488 -27 4 -61 9 -75 11 -29 6 -476 15 -481 10z"/>
</g>
</svg>
