<?xml version="1.0" standalone="no"?>
<!DOCTYPE svg PUBLIC "-//W3C//DTD SVG 20010904//EN"
 "http://www.w3.org/TR/2001/REC-SVG-20010904/DTD/svg10.dtd">
<svg version="1.0" xmlns="http://www.w3.org/2000/svg"
 width="1024.000000pt" height="1024.000000pt" viewBox="0 0 1024.000000 1024.000000"
 preserveAspectRatio="xMidYMid meet">
<metadata>
Created by potrace 1.11, written by Peter Selinger 2001-2013
</metadata>
<g transform="translate(0.000000,1024.000000) scale(0.100000,-0.100000)"
fill="#000000" stroke="none">
<path d="M0 5120 l0 -5120 5120 0 5120 0 0 5120 0 5120 -5120 0 -5120 0 0
-5120z m4495 4578 c12 -71 185 -1292 182 -1293 -1 -1 -39 -7 -85 -14 -192 -28
-487 -113 -703 -202 -67 -27 -124 -48 -127 -45 -7 8 -552 1199 -552 1208 0 9
55 34 215 98 258 103 595 200 880 254 179 34 183 33 190 -6z m1521 7 c288 -53
595 -141 874 -250 173 -68 231 -94 227 -103 -2 -4 -127 -277 -277 -607 -151
-330 -275 -602 -276 -604 -2 -2 -41 13 -88 33 -213 92 -545 189 -739 217 -66
10 -87 17 -87 29 0 8 41 306 91 663 90 630 93 647 114 647 12 0 84 -11 161
-25z m-3497 -1588 l431 -498 -148 -147 c-161 -161 -280 -300 -398 -468 -42
-60 -79 -108 -83 -107 -6 1 -1110 710 -1119 718 -11 10 225 333 357 490 165
195 507 534 522 517 3 -4 200 -231 438 -505z m5912 346 c255 -249 469 -501
647 -766 l51 -75 -559 -361 c-308 -199 -563 -361 -568 -361 -4 1 -37 45 -74
98 -131 189 -310 396 -464 536 l-91 83 436 506 c240 278 439 506 443 506 4 1
84 -74 179 -166z m-2851 -1616 c515 -82 928 -317 1214 -690 64 -84 178 -276
170 -289 -3 -4 -214 -8 -469 -8 l-464 0 -50 44 c-112 99 -266 180 -426 223
-99 26 -104 27 -497 31 l-397 4 -3 -149 -3 -148 -390 0 -390 0 -3 490 c-1 270
0 496 3 503 4 11 150 13 802 9 682 -3 813 -6 903 -20z m4159 -637 c74 -299
123 -645 137 -982 l7 -158 -670 0 -670 0 -7 128 c-14 255 -49 495 -105 710
l-29 112 53 15 c29 9 318 94 641 189 399 118 591 170 595 162 4 -6 25 -85 48
-176z m-8438 -11 l626 -183 -24 -86 c-56 -205 -96 -471 -109 -728 l-7 -142
-668 0 -669 0 0 79 c0 208 39 580 85 823 25 127 92 404 102 421 3 5 13 7 22 4
9 -2 298 -87 642 -188z m3160 -653 c102 -38 159 -117 159 -222 0 -73 -24 -128
-74 -172 -21 -18 -37 -34 -35 -36 2 -1 25 -15 51 -29 63 -36 96 -82 108 -149
22 -119 -23 -215 -125 -266 -71 -35 -137 -42 -405 -42 l-260 0 0 471 0 471
268 -4 c218 -4 275 -8 313 -22z m1369 -66 l0 -90 -252 -2 -253 -3 -3 -97 -3
-98 226 0 225 0 0 -90 0 -90 -225 0 -225 0 0 -100 0 -100 255 0 255 0 0 -90 0
-90 -355 0 -355 0 0 470 0 470 355 0 355 0 0 -90z m1170 -5 l0 -95 -140 0
-140 0 0 -375 0 -375 -105 0 -105 0 0 375 0 375 -140 0 -140 0 0 95 0 95 385
0 385 0 0 -95z m-2340 -1296 l0 -140 403 3 c398 4 403 4 502 31 126 33 299
119 388 192 l67 55 470 0 470 0 -29 -58 c-44 -88 -141 -228 -219 -316 -278
-313 -660 -514 -1127 -593 -100 -16 -179 -18 -910 -18 l-800 0 -3 493 -2 492
395 0 395 0 0 -141z m4390 -250 c344 -99 628 -184 633 -188 10 -9 -95 -317
-169 -496 -74 -178 -186 -400 -293 -581 l-84 -142 -66 42 c-36 24 -289 186
-561 361 -272 174 -497 319 -499 321 -2 2 21 45 51 96 116 195 247 482 314
690 15 47 32 84 38 82 6 -1 292 -85 636 -185z m-7075 43 c76 -224 206 -498
321 -679 l34 -53 -113 -73 c-421 -273 -1010 -652 -1014 -652 -14 0 -181 294
-268 470 -111 227 -160 344 -236 570 -40 117 -54 171 -46 174 26 10 1272 378
1274 376 2 0 23 -61 48 -133z m5860 -1981 c226 -259 410 -477 410 -483 0 -16
-238 -207 -386 -310 -66 -46 -184 -122 -263 -170 -167 -102 -457 -251 -466
-240 -4 4 -75 158 -160 342 -84 184 -208 455 -276 603 l-123 268 117 58 c211
107 434 251 608 395 l79 66 25 -29 c14 -16 210 -241 435 -500z m-4674 364
c141 -105 281 -192 460 -284 l146 -76 -273 -600 c-151 -330 -275 -604 -277
-610 -8 -22 -328 143 -557 287 -212 133 -565 399 -565 426 0 9 491 584 798
935 l69 78 46 -38 c25 -20 94 -73 153 -118z m2004 -657 c153 0 284 6 360 15
66 8 121 14 122 13 5 -4 192 -1321 189 -1324 -9 -8 -263 -32 -457 -43 -162 -8
-268 -9 -420 0 -236 13 -422 30 -440 42 -11 6 4 129 70 601 46 326 88 622 93
658 l10 66 116 -14 c67 -8 220 -13 357 -14z"/>
<path d="M4080 5290 l0 -100 125 0 c175 0 215 19 215 105 0 43 -33 79 -81 89
-18 3 -83 6 -145 6 l-114 0 0 -100z"/>
<path d="M4080 4915 l0 -105 155 0 c176 0 207 9 230 64 25 59 -8 117 -74 136
-20 5 -98 10 -173 10 l-138 0 0 -105z"/>
</g>
</svg>
