<?xml version="1.0" standalone="no"?>
<!DOCTYPE svg PUBLIC "-//W3C//DTD SVG 20010904//EN"
 "http://www.w3.org/TR/2001/REC-SVG-20010904/DTD/svg10.dtd">
<svg version="1.0" xmlns="http://www.w3.org/2000/svg"
 width="1250.000000pt" height="1250.000000pt" viewBox="0 0 1250.000000 1250.000000"
 preserveAspectRatio="xMidYMid meet">
<metadata>
Created by potrace 1.11, written by Peter Selinger 2001-2013
</metadata>
<g transform="translate(0.000000,1250.000000) scale(0.100000,-0.100000)"
fill="#000000" stroke="none">
<path d="M5999 10905 c-2 -1 -51 -6 -109 -10 -58 -4 -116 -8 -130 -10 -96 -12
-136 -18 -220 -31 -130 -20 -145 -23 -225 -40 -38 -8 -81 -17 -95 -20 -108
-22 -321 -81 -395 -109 -49 -19 -115 -42 -145 -51 -30 -9 -125 -45 -210 -81
-420 -177 -790 -395 -1129 -667 -75 -60 -138 -112 -141 -115 -31 -36 -156
-131 -180 -136 -16 -4 -30 -11 -30 -17 0 -17 -68 -108 -126 -168 -29 -30 -62
-66 -73 -80 -12 -14 -29 -34 -39 -45 -113 -128 -251 -307 -357 -461 -201 -294
-394 -667 -512 -994 -60 -165 -134 -395 -148 -457 -2 -10 -13 -61 -25 -113
-54 -239 -89 -479 -107 -730 -15 -198 -6 -770 12 -800 1 -3 6 -39 10 -80 9
-102 33 -249 65 -405 5 -22 11 -56 15 -75 3 -19 8 -42 11 -50 3 -8 8 -26 10
-40 9 -47 77 -275 111 -375 90 -257 220 -550 343 -770 18 -33 41 -74 51 -92
19 -34 36 -62 114 -183 113 -176 310 -430 468 -604 114 -124 376 -376 402
-386 7 -3 31 -21 52 -40 97 -89 287 -238 351 -275 9 -5 55 -35 102 -66 193
-126 480 -278 695 -368 55 -23 114 -48 130 -56 17 -7 48 -19 70 -26 22 -7 45
-16 50 -19 6 -4 44 -17 85 -30 41 -13 107 -33 145 -46 63 -20 166 -50 205 -60
165 -40 361 -79 456 -89 32 -4 62 -9 65 -11 3 -1 35 -6 71 -9 36 -3 88 -9 117
-14 148 -23 721 -21 906 3 17 3 62 7 100 11 82 7 131 13 165 20 14 3 41 8 60
11 142 21 439 92 607 145 144 45 328 115 456 173 44 20 81 36 83 36 5 0 305
147 324 159 55 35 213 131 215 131 15 0 321 218 454 323 229 182 567 523 731
737 19 25 37 47 40 50 8 7 116 156 178 246 56 80 214 346 239 399 7 17 17 37
22 45 63 102 261 564 291 675 4 17 22 75 39 130 43 137 111 417 127 525 7 44
12 76 18 115 3 17 7 50 10 75 3 25 8 55 10 67 3 12 8 53 11 90 4 37 9 82 11
98 9 58 11 571 4 675 -11 146 -17 203 -44 390 -23 159 -26 177 -47 285 -46
231 -167 618 -251 804 -10 24 -28 65 -38 91 -56 143 -255 510 -388 715 -237
368 -648 809 -1022 1098 -91 70 -170 131 -176 136 -15 12 -193 128 -277 180
-38 23 -89 51 -114 62 -25 11 -57 28 -72 38 -33 24 -281 148 -371 186 -36 15
-83 35 -105 45 -22 9 -58 23 -80 29 -38 12 -57 19 -107 41 -80 34 -442 139
-537 155 -19 3 -37 8 -41 10 -4 2 -22 7 -41 10 -19 3 -70 12 -114 20 -44 8
-102 17 -129 20 -27 3 -52 8 -55 9 -3 2 -35 6 -71 10 -36 3 -83 9 -105 11
-104 13 -190 17 -446 20 -152 2 -278 2 -280 0z"/>
</g>
</svg>
